<?xml version="1.0" encoding="utf-8"?>
<!DOCTYPE svg PUBLIC "-//W3C//DTD SVG 1.1//EN" "http://www.w3.org/Graphics/SVG/1.1/DTD/svg11.dtd">
<svg style="width:308px;height:308px;" version="1.1" id="图形" xmlns="http://www.w3.org/2000/svg" xmlns:xlink="http://www.w3.org/1999/xlink" x="0px" y="0px" width="1024px" height="1024px" viewBox="0 0 1024 1024" enable-background="new 0 0 1024 1024" xml:space="preserve">
  <path class="svgpath" data-index="path_0" fill="#ecf0f1" d="M512.477884 378.577245m-28.337395 0a27.692 27.692 0 1 0 56.67479 0 27.692 27.692 0 1 0 -56.67479 0Z" />
<path class="svgpath" data-index="path_1" fill="#ecf0f1" d="M337.729931 378.577245m-28.337395 0a27.692 27.692 0 1 0 56.67479 0 27.692 27.692 0 1 0 -56.67479 0Z" />
<path class="svgpath" data-index="path_2" fill="#ecf0f1" d="M564.248991 529.892509m-25.612331 0a25.029 25.029 0 1 0 51.224662 0 25.029 25.029 0 1 0 -51.224662 0Z" />
<path class="svgpath" data-index="path_3" fill="#ecf0f1" d="M512.00307 64.302515c-247.254314 0-447.697485 200.443172-447.697485 447.696462s200.443172 447.696462 447.697485 447.696462c247.25329 0 447.690322-200.443172 447.690322-447.696462S759.25636 64.302515 512.00307 64.302515zM422.809655 637.248585c-28.742625 0-56.219419-4.700045-81.479733-13.252839l-69.882604 42.666752-0.021489-0.016373c-1.007957 0.802272-2.267647 1.301645-3.656273 1.301645-3.260254 0-5.903453-2.6432-5.903453-5.903453 0-0.821715 0.168846-1.602498 0.471744-2.312672l17.789155-66.937528c-49.975205-35.781948-81.838913-89.976244-81.838913-150.637836 0-107.74698 100.521414-195.093327 224.520543-195.093327 113.032356 0 206.54003 72.583109 222.199685 167.033247-3.802606-0.180102-7.629771-0.278339-11.484565-0.278339-114.568339 0-207.445656 80.432891-207.445656 179.652659 0 15.035438 2.145873 29.635971 6.163373 43.593867C429.113221 637.176954 425.970648 637.248585 422.809655 637.248585zM758.559489 718.313879l17.900695 49.967018-0.014326 0.010233c0.364297 0.780783 0.582261 1.642406 0.582261 2.561335 0 3.360538-2.724041 6.085602-6.085602 6.085602-1.569752 0-2.986007-0.610914-4.065596-1.587148l-52.708456-32.501228c-24.726148 9.860579-52.294017 15.378246-81.371262 15.378246-106.542548 0-192.913685-73.92671-192.913685-165.120688 0-91.193978 86.370113-165.120688 192.913685-165.120688s192.913685 73.92671 192.913685 165.120688C825.710888 643.173528 799.672862 688.032202 758.559489 718.313879z" />
<path class="svgpath" data-index="path_4" fill="#ecf0f1" d="M703.393052 529.892509m-25.612331 0a25.029 25.029 0 1 0 51.224662 0 25.029 25.029 0 1 0 -51.224662 0Z" />

</svg>
