<?xml version="1.0" encoding="utf-8"?>
<!-- Generator: Adobe Illustrator 16.0.0, SVG Export Plug-In . SVG Version: 6.00 Build 0)  -->
<!DOCTYPE svg PUBLIC "-//W3C//DTD SVG 1.0//EN" "http://www.w3.org/TR/2001/REC-SVG-20010904/DTD/svg10.dtd">
<svg version="1.0" id="Layer_1" xmlns="http://www.w3.org/2000/svg" xmlns:xlink="http://www.w3.org/1999/xlink" x="0px" y="0px"
	 width="800px" height="1280px" viewBox="0 0 800 1280" enable-background="new 0 0 800 1280" xml:space="preserve">
<path fill="#ECF0F1" d="M377.867,534.418c0,5.937,2.445,11.836,6.641,16.031c4.195,4.199,10.094,6.641,16.031,6.641
	c5.934,0,11.832-2.442,16.027-6.641c4.199-4.195,6.641-10.094,6.641-16.031c0-5.934-2.441-11.832-6.641-16.028
	c-4.195-4.199-10.094-6.64-16.027-6.64c-5.937,0-11.836,2.441-16.031,6.64C380.312,522.586,377.867,528.484,377.867,534.418
	L377.867,534.418z M377.867,534.418"/>
<path fill="#ECF0F1" d="M238.07,534.418c0,5.937,2.442,11.836,6.641,16.031c4.195,4.199,10.094,6.641,16.027,6.641
	c5.938,0,11.836-2.442,16.032-6.641c4.195-4.195,6.64-10.094,6.64-16.031c0-5.934-2.445-11.832-6.64-16.028
	c-4.196-4.199-10.094-6.64-16.032-6.64c-5.933,0-11.832,2.441-16.027,6.64C240.512,522.586,238.07,528.484,238.07,534.418
	L238.07,534.418z M238.07,534.418"/>
<path fill="#ECF0F1" d="M421.465,655.473c0,5.363,2.207,10.695,6,14.488s9.125,6,14.488,6c5.367,0,10.695-2.207,14.488-6
	c3.797-3.793,6.004-9.125,6.004-14.488s-2.207-10.695-6.004-14.488c-3.793-3.793-9.121-6.004-14.488-6.004
	c-5.363,0-10.695,2.211-14.488,6.004C423.672,644.777,421.465,650.109,421.465,655.473L421.465,655.473z M421.465,655.473"/>
<path fill="none" d="M400.156,283C202.355,283,42,443.355,42,641.156c0,197.805,160.355,358.156,358.156,358.156
	c197.805,0,358.152-160.352,358.152-358.156C758.309,443.355,597.961,283,400.156,283L400.156,283z M328.805,741.355
	c-22.996,0-44.977-3.758-65.184-10.602l-55.906,34.133l-0.02-0.012c-0.804,0.641-1.812,1.043-2.925,1.043
	c-2.606,0-4.723-2.117-4.723-4.723c0-0.66,0.137-1.285,0.379-1.852l14.23-53.551c-39.98-28.625-65.468-71.981-65.468-120.512
	c0-86.195,80.414-156.074,179.613-156.074c90.426,0,165.234,58.066,177.762,133.629c-3.043-0.145-6.105-0.223-9.188-0.223
	c-91.656,0-165.957,64.344-165.957,143.723c0,12.027,1.715,23.707,4.93,34.875C333.848,741.301,331.332,741.355,328.805,741.355
	L328.805,741.355z M597.402,806.211l14.32,39.973l-0.012,0.008c0.293,0.625,0.469,1.312,0.469,2.047c0,2.691-2.18,4.871-4.871,4.871
	c-1.254,0-2.387-0.488-3.25-1.27l-42.168-26.004c-19.781,7.891-41.836,12.305-65.098,12.305
	c-85.234,0-154.332-59.141-154.332-132.098c0-72.953,69.098-132.098,154.332-132.098s154.332,59.145,154.332,132.098
	C651.125,746.098,630.293,781.984,597.402,806.211L597.402,806.211z M597.402,806.211"/>
<path fill="#ECF0F1" d="M532.781,655.473c0,5.363,2.207,10.695,6,14.488s9.125,6,14.488,6s10.695-2.207,14.488-6
	s6.004-9.125,6.004-14.488s-2.211-10.695-6.004-14.488c-3.793-3.793-9.125-6.004-14.488-6.004s-10.695,2.211-14.488,6.004
	C534.988,644.777,532.781,650.109,532.781,655.473L532.781,655.473z M532.781,655.473"/>
</svg>
