<?xml version="1.0" encoding="utf-8"?>
<!DOCTYPE svg PUBLIC "-//W3C//DTD SVG 1.1//EN" "http://www.w3.org/Graphics/SVG/1.1/DTD/svg11.dtd">
<svg style="width:308px;height:308px;" version="1.1" id="图形" xmlns="http://www.w3.org/2000/svg" xmlns:xlink="http://www.w3.org/1999/xlink" x="0px" y="0px" width="1024px" height="1024px" viewBox="0 0 1024 1024" enable-background="new 0 0 1024 1024" xml:space="preserve">
  <path class="svgpath" data-index="path_0" fill="#272636" d="M519.817036 424.590208c13.305027 0.093121 23.965831-10.145058 24.038486-23.086811 0.081864-13.546527-10.089799-24.12342-23.266913-24.183795-13.540388-0.064468-23.880897 10.026354-23.986297 23.407106C496.496911 414.002059 506.706437 424.500157 519.817036 424.590208z" />
<path class="svgpath" data-index="path_1" fill="#272636" d="M373.744169 377.319601c-13.447267-0.072655-24.052812 10.267854-24.090675 23.485901-0.034792 13.167904 10.384511 23.732517 23.467481 23.785729 13.345959 0.058328 23.747867-10.133801 23.814382-23.328311C396.996756 387.854539 386.862955 377.392256 373.744169 377.319601z" />
<path class="svgpath" data-index="path_2" fill="#272636" d="M563.354622 506.391259c-11.992125-0.052189-21.225417 9.201569-21.208021 21.258163 0.014326 11.770068 9.29776 20.974707 21.152762 20.963451 11.80486-0.00921 21.138436-9.347902 21.062711-21.070898C584.285327 515.590781 575.194274 506.438331 563.354622 506.391259z" />
<path class="svgpath" data-index="path_3" fill="#272636" d="M520.169053 26.480094c-268.147156 0-485.519906 217.372749-485.519906 485.519906 0 268.144086 217.372749 485.519906 485.519906 485.519906 268.144086 0 485.516836-217.375819 485.516836-485.519906C1005.685889 243.852844 788.31314 26.480094 520.169053 26.480094zM430.004521 617.018845c-17.358343-1.091868-34.317597-4.461615-50.875714-9.874905-1.348718-0.443092-3.430122 0.320295-4.804423 1.13894-18.21178 10.82658-36.353976 21.767769-54.512544 32.67519-2.248204 1.348718-4.493338 3.226484-7.169283 1.016143-2.434445-2.009773-1.508353-4.565992-0.792039-6.997368 4.854565-16.493649 9.583263-33.031301 14.71412-49.440016 1.074472-3.436262 0.23843-4.912893-2.407839-6.880711-28.444842-21.173229-49.583279-47.940872-59.748802-82.20014-14.644535-49.356105-4.968152-94.547353 26.458605-134.811382 27.195386-34.845623 63.671135-55.43045 106.300025-65.712631 20.116153-4.854565 40.573067-6.459109 61.108776-5.104251 49.829895 3.296069 93.679589 20.928658 129.407302 56.528458 21.903869 21.828145 36.344766 47.945989 42.687218 78.361719 0.309038 1.464351 0.427742 2.972705 0.687662 4.842285-1.574868 0-2.857071 0.028653-4.13825-0.00307-52.320623-1.208525-98.390891 14.455223-136.194892 51.394531-21.793352 21.298072-35.639708 47.15088-40.648792 77.369112-3.071965 18.522865-2.085498 36.96182 2.579755 55.17667 0.212848 0.823761 0.369414 1.665942 0.574075 2.603291C445.318298 617.099686 437.634292 617.495706 430.004521 617.018845zM747.218186 666.910139c-5.448082 5.844102-11.659551 11.001565-17.754363 16.193821-1.886977 1.610684-2.099824 2.819209-1.350764 4.976338 4.353145 12.522198 8.573259 25.089421 12.836353 37.643342 0.282433 0.826831 0.905626 1.715061 0.780783 2.478448-0.288572 1.718131-0.457418 4.027733-1.587148 4.871961-1.094938 0.812505-3.674693 0.692778-5.01727-0.061398-8.701173-4.895497-17.2335-10.089799-25.838482-15.163351-5.861498-3.453658-11.691273-6.973832-17.667382-10.220782-1.319042-0.716314-3.415796-0.992607-4.783956-0.483001-22.806425 8.494465-46.376237 12.599969-70.654176 11.668761-45.500287-1.741667-85.639472-16.82827-118.140701-49.542346-19.98824-20.119223-32.733519-44.242643-36.444027-72.517617-4.391007-33.473369 4.146437-63.836911 24.405853-90.697675 23.170722-30.715559 54.471612-49.064462 91.384313-58.388828 16.578584-4.187369 33.490765-6.016017 50.564629-5.212722 45.339628 2.137687 85.307921 17.282618 117.555369 50.077535 19.472494 19.805068 31.636534 43.505863 35.890418 71.091128 0.317225 2.061962 0.579191 4.13825 0.719384 6.214539 0.233314 3.616364 0.348947 7.238868 0.49835 10.483772C782.165116 614.095259 769.815857 642.670062 747.218186 666.910139z" />
<path class="svgpath" data-index="path_4" fill="#272636" d="M679.848822 506.391259c-11.95938-0.066515-21.301142 9.259898-21.280676 21.258163 0.020466 11.580756 9.289574 20.87954 20.902052 20.963451 11.930727 0.086981 21.304212-9.007141 21.379936-20.739347C700.92893 515.733021 691.861414 506.457774 679.848822 506.391259z" />

</svg>
